<svg width="800" height="400" viewBox="0 0 800 400" xmlns="http://www.w3.org/2000/svg">
  <rect width="100%" height="100%" fill="white"/>
  <text x="100" y="30" font-family="Inter, sans-serif" font-size="16" font-weight="bold">Strategy C: Semantic Text</text>
  <text x="500" y="30" font-family="Inter, sans-serif" font-size="16" font-weight="bold">Strategy E: Full-Spectrum</text>
  
  <!-- Connectors for C -->
  <line x1="100" y1="100" x2="110" y2="105" stroke="#cbd5e1" stroke-dasharray="4"/>
  
  <!-- Connectors for E -->
  <line x1="510" y1="115" x2="520" y2="130" stroke="#cbd5e1" stroke-dasharray="4" stroke-width="2"/>
  <line x1="510" y1="115" x2="500" y2="100" stroke="#cbd5e1" stroke-dasharray="4"/><circle cx="100.0" cy="100.0" r="6" fill="#16a34a"/>
<text x="110.0" y="105.0" font-family="Inter, sans-serif" font-size="12">Ambient</text><circle cx="110.0" cy="105.0" r="6" fill="#0284c7"/>
<text x="120.0" y="110.0" font-family="Inter, sans-serif" font-size="12">Piano Probe</text><circle cx="300.0" cy="250.0" r="6" fill="#dc2626"/>
<text x="310.0" y="255.0" font-family="Inter, sans-serif" font-size="12">Metal</text><circle cx="250.0" cy="100.0" r="6" fill="#9333ea"/>
<text x="260.0" y="105.0" font-family="Inter, sans-serif" font-size="12">Jazz</text><circle cx="500.0" cy="100.0" r="6" fill="#16a34a"/>
<text x="510.0" y="105.0" font-family="Inter, sans-serif" font-size="12">Ambient</text><circle cx="520.0" cy="130.0" r="6" fill="#9333ea"/>
<text x="530.0" y="135.0" font-family="Inter, sans-serif" font-size="12">Jazz (Closer!)</text><circle cx="510.0" cy="115.0" r="6" fill="#0284c7"/>
<text x="520.0" y="120.0" font-family="Inter, sans-serif" font-size="12">Piano Probe</text><circle cx="700.0" cy="250.0" r="6" fill="#dc2626"/>
<text x="710.0" y="255.0" font-family="Inter, sans-serif" font-size="12">Metal</text></svg>